<?xml version="1.0" standalone="no"?>
<!DOCTYPE svg PUBLIC "-//W3C//DTD SVG 20010904//EN"
        "http://www.w3.org/TR/2001/REC-SVG-20010904/DTD/svg10.dtd">
<svg version="1.0" xmlns="http://www.w3.org/2000/svg"
     width="500.000000pt" height="500.000000pt" viewBox="0 0 500.000000 500.000000"
     preserveAspectRatio="xMidYMid meet">

    <g transform="translate(0.000000,500.000000) scale(0.100000,-0.100000)"
       fill="#000000" stroke="none">
        <path d="M2260 4988 c-489 -51 -940 -234 -1330 -542 -41 -33 -133 -118 -205
-190 -393 -396 -626 -875 -707 -1451 -16 -116 -16 -494 0 -610 68 -485 240
-890 540 -1270 73 -92 277 -296 372 -371 453 -358 1008 -554 1570 -554 562 0
1117 196 1570 554 95 75 299 279 372 371 300 380 472 785 540 1270 7 50 13
186 13 305 0 119 -6 255 -13 305 -70 503 -253 920 -570 1303 -311 376 -761
665 -1248 802 -274 77 -627 107 -904 78z m299 -1340 c47 -89 66 -123 71 -128
3 -3 10 -14 16 -25 6 -11 25 -45 41 -75 17 -30 39 -71 49 -90 11 -19 22 -37
25 -40 3 -3 8 -12 12 -20 4 -8 11 -22 17 -30 25 -37 140 -243 140 -251 0 -5 4
-9 9 -9 5 0 11 -8 14 -17 6 -18 73 -140 87 -158 7 -10 39 -67 92 -165 17 -30
34 -59 38 -65 7 -10 51 -88 86 -155 11 -19 21 -37 24 -40 9 -9 51 -85 57 -102
3 -10 9 -18 14 -18 5 0 9 -4 9 -10 0 -5 13 -31 29 -58 31 -53 65 -113 121
-212 20 -36 48 -84 63 -107 15 -24 27 -44 27 -46 0 -2 22 -42 49 -89 26 -46
62 -109 79 -139 16 -29 46 -82 65 -116 l36 -63 -1306 0 c-1043 0 -1303 3
-1295 13 5 6 23 37 40 67 38 71 74 134 134 239 26 46 48 86 48 88 0 2 15 27
33 56 18 29 49 81 68 117 18 36 37 67 41 68 5 2 8 7 8 12 0 5 20 43 45 84 25
42 45 79 45 81 0 3 16 29 35 59 19 30 35 60 35 66 0 5 4 10 8 10 4 0 13 12 19
28 12 26 61 116 88 159 8 11 27 45 43 75 56 101 85 153 92 163 8 10 33 54 73
130 12 22 24 42 27 45 3 3 11 15 18 27 6 13 32 58 55 100 86 154 100 178 106
183 3 3 14 21 25 40 10 19 32 60 49 90 16 30 35 64 41 75 6 11 13 22 16 25 5
5 24 39 71 128 13 23 28 42 34 42 6 0 21 -19 34 -42z"/>
    </g>
</svg>
